<svg id="21f18096-0438-499f-94b1-aaadef272a00" data-name="Layer 1" xmlns="http://www.w3.org/2000/svg" width="474.68" height="500" viewBox="0 0 474.68 500">
  <title>gears</title>
  <g id="6a295a77-df6b-4dfd-9c64-b7bd58f1ddfd" data-name="gear">
    <path d="M243.55,212.3V186.5l-14.22-1.19a64.26,64.26,0,0,0-8.6-20.57l9.27-11-18.25-18.24-11.05,9.35a64.22,64.22,0,0,0-20.45-8.37L179,122H153.23L152,136.65a64.15,64.15,0,0,0-20.2,8.44l-11.29-9.55-18.25,18.24,9.59,11.33a64.1,64.1,0,0,0-8.36,20.16L88.72,186.5v25.8l14.72,1.23a64.18,64.18,0,0,0,8.33,20.27L102.27,245l18.25,18.25,11.12-9.41A64.31,64.31,0,0,0,152,262.41l1.2,14.4H179l1.19-14.27a64.29,64.29,0,0,0,20.64-8.49l10.88,9.21L230,245l-9.18-10.85a64,64,0,0,0,8.57-20.68Zm-77.41,32.26a45.16,45.16,0,1,1,45.15-45.16A45.16,45.16,0,0,1,166.14,244.56Z" transform="translate(-12.66 0)" fill="#9fa2b2"/>
  </g>
  <g id="4494890e-a377-413e-96c0-d1b899e67cb5" data-name="gear">
    <path d="M411.28,212.3V186.5l-14.22-1.19a64.26,64.26,0,0,0-8.6-20.57l9.27-11-18.25-18.24-11.05,9.35A64.22,64.22,0,0,0,348,136.52L346.77,122H321l-1.22,14.66a64.15,64.15,0,0,0-20.2,8.44l-11.29-9.55L270,153.78l9.59,11.33a64.1,64.1,0,0,0-8.36,20.16l-14.78,1.23v25.8l14.72,1.23a64.18,64.18,0,0,0,8.33,20.27L270,245l18.25,18.25,11.12-9.41a64.31,64.31,0,0,0,20.39,8.56l1.2,14.4h25.81L348,262.54a64.29,64.29,0,0,0,20.64-8.49l10.88,9.21L397.73,245l-9.18-10.85a64.25,64.25,0,0,0,8.57-20.68Zm-77.42,32.26A45.16,45.16,0,1,1,379,199.4,45.15,45.15,0,0,1,333.86,244.56Z" transform="translate(-12.66 0)" fill="#9fa2b2"/>
  </g>
  <g id="244d6071-6d46-455f-820e-39444486e2ad" data-name="gear">
    <path d="M327.41,338.82V313l-14.21-1.19a64,64,0,0,0-8.61-20.57l9.27-11-18.24-18.24-11.06,9.35A63.9,63.9,0,0,0,264.11,263L262.9,248.5H237.1l-1.22,14.66a64.46,64.46,0,0,0-20.21,8.45l-11.29-9.55L186.14,280.3l9.58,11.33a64.1,64.1,0,0,0-8.36,20.16L172.59,313v25.8l14.72,1.23a63.92,63.92,0,0,0,8.32,20.27l-9.49,11.21,18.24,18.25,11.13-9.41a64.21,64.21,0,0,0,20.39,8.56l1.2,14.4h25.8l1.19-14.28a64,64,0,0,0,20.64-8.48l10.89,9.21,18.24-18.25-9.18-10.85A63.81,63.81,0,0,0,313.25,340ZM250,371.08a45.16,45.16,0,1,1,45.16-45.16A45.16,45.16,0,0,1,250,371.08Z" transform="translate(-12.66 0)" fill="#9fa2b2"/>
  </g>
  <g id="838c4e88-eba9-4a17-af23-e85f1809651a" data-name="circle">
    <path d="M250,35.32a227.41,227.41,0,0,1,88.49,436.82,227.4,227.4,0,0,1-177-419A225.93,225.93,0,0,1,250,35.32m0-10c-131.08,0-237.34,106.26-237.34,237.34S118.92,500,250,500,487.34,393.74,487.34,262.66,381.08,25.32,250,25.32Z" transform="translate(-12.66 0)" fill="#1c3144"/>
  </g>
  <g id="c97a105f-b4eb-4ad2-a37d-1e3d2b3b1088" data-name="point">
    <path d="M249.94,58.29a26.65,26.65,0,1,1,26.65-26.64A26.67,26.67,0,0,1,249.94,58.29Z" transform="translate(-12.66 0)" fill="#1c3144"/>
    <path d="M249.94,10A21.65,21.65,0,1,1,228.3,31.65,21.67,21.67,0,0,1,249.94,10m0-10a31.65,31.65,0,1,0,31.65,31.65A31.65,31.65,0,0,0,249.94,0Z" transform="translate(-12.66 0)" fill="#1c3144"/>
  </g>
  <g id="a40e9760-393c-44e5-8ac4-c19b5d292d82" data-name="point">
    <path d="M450,404.79a26.67,26.67,0,1,1,23.1-13.33A26.69,26.69,0,0,1,450,404.79Z" transform="translate(-12.66 0)" fill="#1c3144"/>
    <path d="M450.08,346.49v10a21.65,21.65,0,1,1-18.78,10.83,21.6,21.6,0,0,1,18.78-10.83v-10m0,0a31.65,31.65,0,1,0,15.79,4.24,31.64,31.64,0,0,0-15.79-4.24Z" transform="translate(-12.66 0)" fill="#1c3144"/>
  </g>
  <g id="adb2d2f1-b15d-45df-acd9-1e63812d8739" data-name="point">
    <path d="M50,404.84a26.66,26.66,0,1,1,13.3-3.58A26.74,26.74,0,0,1,50,404.84Z" transform="translate(-12.66 0)" fill="#1c3144"/>
    <path d="M49.9,346.54v10a21.64,21.64,0,1,1-10.8,2.9,21.74,21.74,0,0,1,10.8-2.9v-10m0,0a31.65,31.65,0,1,0,27.44,15.83,31.57,31.57,0,0,0-27.44-15.83Z" transform="translate(-12.66 0)" fill="#1c3144"/>
  </g>
</svg>
