<?xml version="1.0" encoding="utf-8"?>
<!-- Generator: Adobe Illustrator 22.0.1, SVG Export Plug-In . SVG Version: 6.00 Build 0)  -->
<svg version="1.1" id="Layer_1" xmlns="http://www.w3.org/2000/svg" xmlns:xlink="http://www.w3.org/1999/xlink" x="0px" y="0px"
	 viewBox="0 0 300 177.3" style="enable-background:new 0 0 300 177.3;" xml:space="preserve">
<style type="text/css">
	.st0{fill:#FFFFFF;}
</style>
<g>
	<g>
		<path class="st0" d="M77.6,55.8c-39,0-62.5,29.8-64.6,76H0.2C3.1,76.4,33.6,43,77.6,43c67.4,0,86.6,78.1,144.8,78.1
			c39,0,62.5-29.8,64.6-76h12.8c-2.8,55.4-33.4,88.7-77.4,88.7C155,133.9,135.8,55.8,77.6,55.8z"/>
	</g>
	<g>
		<path class="st0" d="M119.2,147.2c0,17.9-12.5,29.9-29.6,29.9c-8.6,0-16.1-3.3-20.9-9.9v9.3H58.6V94.5h10.6v32.2
			c4.9-6.3,12.1-9.4,20.4-9.4C106.7,117.3,119.2,129.3,119.2,147.2z M108.5,147.2c0-12.5-8.5-20.5-19.8-20.5
			c-11.2,0-19.7,8.1-19.7,20.5c0,12.5,8.5,20.7,19.7,20.7C100,167.8,108.5,159.6,108.5,147.2z"/>
	</g>
	<g>
		<path class="st0" d="M226.6,18.8v5.1h17v8.7h-16.8v49.8h-10.6V32.6h-9.9v-8.7h9.9v-5.2c0-11.4,6.8-18.9,19.3-18.9
			c4.5,0,8.9,1.1,11.9,3.4l-3.2,8.1c-2.2-1.7-5.1-2.8-8.2-2.8C229.8,8.6,226.6,12.1,226.6,18.8z"/>
	</g>
</g>
</svg>
