<?xml version="1.0" standalone="no"?>
<!DOCTYPE svg PUBLIC "-//W3C//DTD SVG 20010904//EN"
 "http://www.w3.org/TR/2001/REC-SVG-20010904/DTD/svg10.dtd">
<svg version="1.0" xmlns="http://www.w3.org/2000/svg"
 width="700.000000pt" height="700.000000pt" viewBox="0 0 700.000000 700.000000"
 preserveAspectRatio="xMidYMid meet">
<metadata>
Created by potrace 1.11, written by Peter Selinger 2001-2013
</metadata>
<g transform="translate(0.000000,700.000000) scale(0.100000,-0.100000)"
fill="#000000" stroke="none">
<path d="M135 6992 c-40 -14 -81 -44 -105 -80 l-25 -37 0 -3375 0 -3375 24
-36 c14 -19 41 -46 60 -60 l36 -24 3375 0 3375 0 36 24 c19 14 46 41 60 60
l24 36 0 3375 0 3375 -24 36 c-14 19 -41 46 -60 60 l-36 24 -3360 2 c-1848 0
-3369 -2 -3380 -5z m2940 -3092 c159 -41 249 -96 486 -301 248 -213 324 -259
465 -281 283 -44 502 164 539 515 l6 57 105 0 104 0 0 -26 c0 -58 -34 -233
-59 -310 -82 -243 -259 -413 -476 -459 -100 -21 -226 -19 -320 5 -159 41 -249
96 -486 301 -90 77 -190 159 -222 181 -169 116 -348 137 -505 60 -147 -72
-244 -230 -276 -451 l-12 -86 -102 -3 -102 -3 0 30 c0 50 20 179 41 260 39
155 139 320 242 399 153 118 376 162 572 112z"/>
</g>
</svg>
