<?xml version="1.0" standalone="no"?>
<!DOCTYPE svg PUBLIC "-//W3C//DTD SVG 20010904//EN"
 "http://www.w3.org/TR/2001/REC-SVG-20010904/DTD/svg10.dtd">
<svg version="1.0" xmlns="http://www.w3.org/2000/svg"
 width="700.000000pt" height="700.000000pt" viewBox="0 0 700.000000 700.000000"
 preserveAspectRatio="xMidYMid meet">
<metadata>
Created by potrace 1.11, written by Peter Selinger 2001-2013
</metadata>
<g transform="translate(0.000000,700.000000) scale(0.100000,-0.100000)"
fill="#000000" stroke="none">
<path d="M1640 4829 c-151 -15 -173 -19 -287 -48 -579 -149 -1011 -592 -1219
-1251 -48 -153 -80 -295 -99 -440 -3 -25 -8 -52 -10 -60 -2 -8 -6 -44 -9 -80
-3 -36 -8 -92 -11 -126 l-5 -60 144 0 c79 1 147 4 150 7 4 3 9 35 11 70 48
639 260 1115 630 1410 245 196 552 291 904 283 69 -2 137 -5 151 -7 349 -48
653 -204 1025 -527 65 -57 126 -110 135 -119 50 -47 329 -310 355 -334 160
-151 297 -270 380 -332 22 -17 46 -36 53 -43 27 -25 199 -141 282 -189 248
-144 497 -226 785 -258 45 -6 314 -5 360 0 244 27 415 76 609 172 73 37 217
124 236 143 3 3 30 25 60 50 66 53 165 153 217 218 21 26 44 54 52 62 59 61
201 315 262 468 67 166 139 428 154 558 3 27 8 56 10 64 5 19 14 82 19 145 3
28 8 80 11 118 l7 67 -151 0 -151 0 -1 -27 c-1 -16 -2 -39 -3 -53 -2 -14 -6
-65 -10 -114 -4 -49 -8 -92 -10 -95 -2 -3 -6 -29 -10 -58 -3 -28 -8 -57 -11
-65 -2 -7 -7 -25 -10 -40 -12 -64 -17 -86 -31 -143 -60 -233 -172 -469 -305
-645 -270 -357 -674 -545 -1149 -534 -302 7 -588 106 -874 302 -83 57 -171
123 -217 164 -15 13 -48 41 -75 63 -26 22 -73 63 -104 91 -30 28 -67 62 -81
75 -21 19 -203 191 -339 319 -316 299 -573 489 -841 620 -53 26 -104 50 -115
53 -10 3 -37 13 -59 21 -107 41 -278 82 -420 101 -69 10 -316 12 -395 4z"/>
</g>
</svg>
